# xmcd
#
# Track frame offsets:
# 150
# 13130
# 27620
# 42130
# 52975
# 67282
# 81550
# 97975
# 110304
# 125722
# 138897
# 154040
# 167437
# 181810
# 196590
# 208787
# 224600
#
# Disc length: 3172 seconds
#
#
# Revision: 0
# Processed by: cddbd v1.5.1PL0 Copyright (c) Steve Scherf et al.
# Submitted via: FreeRIP 2.70 
#
DISCID=f00c6211
DTITLE=Tião Carreiro - Sua Majestade - Tião Carreiro
DYEAR=2004
DGENRE=Sertanejo
TTITLE0=Tião Carreiro-Nascimento de Jesus
TTITLE1=Tião Carreiro-Amargurado
TTITLE2=Tião Carreiro-Chora Viola
TTITLE3=Tião Carreiro-Saudade
TTITLE4=Tião Carreiro-Chamada a Cobrar
TTITLE5=Tião Carreiro-Mundo Velho Nao Tem Jeito
TTITLE6=Tião Carreiro-Estrela de Ouro
TTITLE7=Tião Carreiro-Fim da Picada
TTITLE8=Tião Carreiro-A Mao do Tempo
TTITLE9=Tião Carreiro-Navalha da Carne
TTITLE10=Tião Carreiro-Rainha do Vale
TTITLE11=Tião Carreiro-Velho Amor
TTITLE12=Tião Carreiro-Sua Majestade Tiao Carreiro
TTITLE13=Tião Carreiro-Baianinho
TTITLE14=Tião Carreiro-E Isto que o Povo Quer
TTITLE15=Tião Carreiro-Guerreiro do Asfalto
TTITLE16=Tião Carreiro-Pagode em Brasilia
EXTD=
EXTT0=
EXTT1=
EXTT2=
EXTT3=
EXTT4=
EXTT5=
EXTT6=
EXTT7=
EXTT8=
EXTT9=
EXTT10=
EXTT11=
EXTT12=
EXTT13=
EXTT14=
EXTT15=
EXTT16=
PLAYORDER=
